<?xml version="1.0" encoding="UTF-8"?>
<!-- Generator: Adobe Illustrator 19.0.1, SVG Export Plug-In . SVG Version: 6.00 Build 0)  -->
<svg version="1.1" id="Layer_1" xmlns="http://www.w3.org/2000/svg" xmlns:xlink="http://www.w3.org/1999/xlink" x="0px" y="0px" viewBox="0 0 283 100" style="enable-background:new 0 0 283 100;" xml:space="preserve">
<style type="text/css">
	.st0{fill-rule:evenodd;clip-rule:evenodd;fill:#00476C;}
	.st1{fill-rule:evenodd;clip-rule:evenodd;fill:#949491;}
</style>
<g>
	<path class="st0" d="M11.3,37.4l14.6-0.1c2,0,3.3-0.1,2.6,3.1L17.3,88.7h19.6c2,0,2.2-1.9,2.4-2l0.8-0.1L37.6,97   c-0.3,1.2-1.1,3-2.6,3H2.8c-2.2,0-2.7-2.4-2.3-3.9l12.7-54.3C13.6,40,13.8,37.4,11.3,37.4"/>
	<path class="st0" d="M50.8,49.5c-0.1,0-0.2,0-0.3,0l14.2-0.1c1.2,0,1.8,1.4,1.4,3.2l-7.4,31c-0.4,1.5-1.1,4.1,0,5.5   c1,1.1,4.8,0.9,6.2,0.9c5.3,0,7-0.5,8.1-5.5l7-32.8c0.2-0.8-0.4-2.1-1.3-2.2c-0.4-0.1-0.8-0.1-1.3-0.1l14.1-0.1   c1.5,0,1.8,1.6,1.4,3.2l-9.8,43.8c-0.1,0.4,0,0.8,0,1.2c0,0.4,0.1,0.7,0.4,1.1c0.2,0.4,0.5,0.7,0.9,0.9c0.4,0.2,0.8,0.3,1.3,0.3   H71.4c-1,0-1.8-1.4-1.8-2.3l0.8-3.5c-1.9,3.9-2.1,5.8-6.5,5.8H50.9c-6.8,0-7.6-5.3-6.3-10.7L53,52.8C53.4,51,52.4,49.9,50.8,49.5"/>
	<path class="st0" d="M135.8,49.5l-1.3,7.4c-0.3,1.8-2.7,3.1-4.3,3.1c-4.9,0-10.1-0.4-15,0.3c-1.1,0.2-2,0.7-2.7,1.6   c-1.9,2.9-3.2,6.2-4.1,9.5c-0.9,3.3-4.2,14.3,0.5,17.1c3.6,2.1,16,0.7,18.1,0c1.7-0.6,2.9-1.6,3.4-3.1L128,96.1   c-0.4,2-2.6,3.9-4.6,3.9l-21,0c-6.7,0-9.4-7.7-9.4-13.1c0-4.5,0.8-9.1,1.7-13.5c0.9-4.6,2.3-8.9,4.1-13c1.8-4,4.1-6.8,6.9-8.4   c2.6-1.5,6-2.5,9.1-2.5L135.8,49.5z"/>
	<path class="st0" d="M145.3,55.4l0.9-5.8h25c6.2,0,9.7,4.3,8.4,10.3l-7,32.6c-0.4,2-1.7,7.5,1.9,7.5H160c-1.5,0-2.7-1.6-2.4-3   l5.2-22.3h-9.8c-0.9,0.1-1.7,0.2-2.5,0.4c-4.2,1-7.6,13.4-2.5,13.4h11.4l-4.5,8.5c-0.6,1.2-2.8,3.1-4.3,3.1c-3.6,0-7.1,0-10.7,0   c-1.7,0-3.3-0.6-4.6-1.7c-3.8-3.2-2.7-10.7-1.8-15c1-4.7,2.4-9.6,4.9-13.8c2.2-3.7,6.1-4,10-4h14c1.2,0,3.1-0.1,3.5-1.3   c0.9-2.4,0.5-5.7-2.7-5.7h-14.3C147,58.5,145.3,57.4,145.3,55.4L145.3,55.4z"/>
	<path class="st0" d="M189.4,49.5l12-0.1c2.1,0,4.8,2.2,3.3,5.2c0.9-1.7,2.2-5.2,4.8-5.2l12.4-0.1l-1.9,7.6   c-0.3,1.3-2.3,2.6-3.5,2.6h-9c-0.8,0-1.5,0.1-2,0.2c-0.5,0.1-0.9,0.3-1.3,0.5c-0.1,0.1-0.1,0.1-0.2,0.2c-0.1,0.1-0.2,0.1-0.3,0.2   c-0.1,0.1-0.2,0.1-0.3,0.2c-0.1,0.1-0.2,0.2-0.3,0.3c-0.3,0.2-0.5,0.5-0.7,0.9c-0.2,0.4-0.4,0.8-0.5,1.4l-7.7,32.7   c-0.4,1.6,0.7,3.8,2.5,3.8h-12.6c-2.1,0-3.9-0.9-3.4-3.1l10.1-43.5C191.1,52.1,191.4,49.5,189.4,49.5"/>
	<path class="st0" d="M224.9,48.5c2.2-1.1,4.6-1.1,6.2,0.5l17,16.9c1.4,1.4,3.6,1.4,5,0c9.5-9.5,19-19,28.5-28.6   c1.4-1.4,1.4-3.6,0-5l-8.3-8.4c-4.9,4.9-9.9,9.9-14.8,14.8c-1.7,1.7-5.6,1.7-7.3,0l-4.7-4.7c-1.7-1.7-5.6-1.7-7.3,0   C234.4,38.9,229.6,43.7,224.9,48.5"/>
	<path class="st1" d="M273.5,18.5c-2.2,1.1-4.6,1.1-6.2-0.5L250.3,1c-1.4-1.4-3.6-1.4-5,0c-9.5,9.5-19,19-28.5,28.6   c-1.4,1.4-1.4,3.6,0,5l8.3,8.4C230,38,235,33,239.9,28.1c1.7-1.7,5.6-1.7,7.3,0l4.7,4.7c1.7,1.7,5.6,1.7,7.3,0   C264,28,268.8,23.2,273.5,18.5"/>
</g>
</svg>