<?xml version="1.0" encoding="utf-8"?>
<!-- Generator: Adobe Illustrator 19.0.1, SVG Export Plug-In . SVG Version: 6.00 Build 0)  -->
<svg version="1.1" id="Layer_1" xmlns="http://www.w3.org/2000/svg" xmlns:xlink="http://www.w3.org/1999/xlink" x="0px" y="0px"
	 viewBox="49.4 344.5 72 72" style="enable-background:new 49.4 344.5 72 72;" xml:space="preserve">
<style type="text/css">
	.st0{fill:#00476C;}
	.st1{fill:#949491;}
</style>
<path class="st0" d="M61.1,395.5c2.2-1.1,4.6-1.1,6.2,0.5l17,16.9c1.4,1.4,3.6,1.4,5,0c9.5-9.5,19-19,28.5-28.6c1.4-1.4,1.4-3.6,0-5
	l-8.3-8.4c-4.9,4.9-9.9,9.9-14.8,14.8c-1.7,1.7-5.6,1.7-7.3,0l-4.7-4.7c-1.7-1.7-5.6-1.7-7.3,0C70.6,385.9,65.8,390.7,61.1,395.5"/>
<path class="st1" d="M109.7,365.5c-2.2,1.1-4.6,1.1-6.2-0.5l-17-17c-1.4-1.4-3.6-1.4-5,0c-9.5,9.5-19,19-28.5,28.6
	c-1.4,1.4-1.4,3.6,0,5l8.3,8.4c4.9-5,9.9-10,14.8-14.9c1.7-1.7,5.6-1.7,7.3,0l4.7,4.7c1.7,1.7,5.6,1.7,7.3,0
	C100.2,375,105,370.2,109.7,365.5"/>
</svg>
